# xmcd
# 
# Track frame offsets:
#     150
#     18427
#     34017
#     51637
#     66415
#     92152
#     110015
#     137060
#     153212
#     167845
#     183487
#     197485
#     213370
#     243780
#     259747
# 
# Disc length: 3715
# 
# Revision: 3
# Processed by: cddbd v1.5.2PL0 Copyright (c) Steve Scherf et al.
# Submitted via: fre:ac v1.0.31
# 
DISCID=d40e810f
DTITLE=Quincy Jones - THIS IS HOW WE FEEL ABOUT "Q" 1956-1981disc2
DYEAR=0
DGENRE=Jazz
TTITLE0=Killer Joe - Single Version
TTITLE1=Gula Matari - Single Version
TTITLE2=Ironside
TTITLE3=What's Going On? - Single Version
TTITLE4=You've Got It Bad Girl
TTITLE5=Body Heat
TTITLE6=Everything Must Change
TTITLE7=If I Ever Lose This Heaven (Single Version)
TTITLE8=Is It Love That We're Missin' (Single Version)
TTITLE9=Mellow Madness
TTITLE10=Stuff Like That - Single Version
TTITLE11=I'm Gonna Miss You In The Morning
TTITLE12=Tell Me A Bedtime Story
TTITLE13=Beatcha' Wouldn't Hurt Me
TTITLE14=Ai No Corrida (Single Version)
EXTD=
EXTT0=
EXTT1=
EXTT2=
EXTT3=
EXTT4=
EXTT5=
EXTT6=
EXTT7=
EXTT8=
EXTT9=
EXTT10=
EXTT11=
EXTT12=
EXTT13=
EXTT14=
PLAYORDER=
